<svg width="200" height="200" xmlns="http://www.w3.org/2000/svg"><g fill="none" fill-rule="evenodd"><path fill="none" d="M0 0h200v200H0z"/><path fill="#C9D0DE" d="M8 133.43l70.063 40.19 114.374-66.973-68.705-40.231z"/><path fill="#F9FBFC" d="M123.732 65L8 132.014l70.063 40.19 114.374-66.973z"/><path fill-opacity=".32" fill="#C9D0DE" d="M145.606 123.204l27.074-15.91-53.713-30.943-28.43 15.95zM86.243 158.797l50.594-29.634L83.124 98.22l-51.951 29.675z"/><path fill-opacity=".32" fill="#919BAA" d="M55.73 121.324l49.76-29.122 38.636 20.449-49.733 29.137z"/><path d="M93.705 98.228l-37.907 22.186 38.664 20.463 37.879-22.2c4.056-2.377 7.375-8.024 7.375-12.549 0-4.524-3.32-6.28-7.375-3.902-.865.507-.84-4.205-1.614-3.442L101.25 82.45c.012.182-.172 3.037-.172 3.229 0 4.525-3.318 10.171-7.374 12.549" fill="#FFCD61"/><path d="M99.046 81.287c-1.35-.831-3.27-.731-5.396.517-.89.52-1.738 1.204-2.528 1.992l-.008.003 38.656 20.459.008-.003c.8-.804 1.662-1.5 2.563-2.03 1.99-1.166 3.8-1.332 5.13-.67L99.047 81.288zM137.618 101.633c.028.016.056.036.084.054l.011-.004-.095-.05zM88.209 105.53l2.53-1.367 26.27 14.327-2.511 1.379zM83.811 108.546l2.531-1.369 26.271 14.327-2.513 1.38zM79.417 111.248l2.53-1.37 14.51 7.887-2.513 1.378z" fill="#F4A84A"/></g></svg>